<svg width="55" height="55" viewBox="0 0 55 55" fill="none" xmlns="http://www.w3.org/2000/svg">
<path fill-rule="evenodd" clip-rule="evenodd" d="M47.1663 0.458984C51.2396 0.458984 54.5413 3.76089 54.5413 7.83398V47.1673C54.5413 51.2405 51.2396 54.5423 47.1663 54.5423H7.83301C3.75992 54.5423 0.458008 51.2405 0.458008 47.1673V7.83398C0.458008 3.76089 3.75992 0.458984 7.83301 0.458984H47.1663ZM47.1663 5.37565C48.5241 5.37565 49.6247 6.4763 49.6247 7.83398V47.1673C49.6247 48.5251 48.5241 49.6256 47.1663 49.6256H34.8747V32.4171H39.9787C41.0367 32.4171 41.9761 31.74 42.3109 30.7361L43.3999 27.4689C43.7979 26.2749 42.9092 25.0421 41.6508 25.0421H34.8747V20.1255C34.8747 18.8963 36.1038 17.6671 37.333 17.6671H42.2497C43.6074 17.6671 44.708 16.5665 44.708 15.2088V13.5224C44.708 12.7283 44.2009 12.0163 43.4329 11.8137C40.2105 10.9633 37.333 10.9633 37.333 10.9633C31.1872 10.9633 27.4997 15.2088 27.4997 18.8963V25.0421H22.583C21.2253 25.0421 20.1247 26.1427 20.1247 27.5004V29.9587C20.1247 31.3165 21.2253 32.4171 22.583 32.4171H27.4997V49.6256H7.83301C6.47532 49.6256 5.37467 48.5251 5.37467 47.1673V7.83398C5.37467 6.4763 6.47532 5.37565 7.83301 5.37565H47.1663Z" fill="#0F0F0F"/>
</svg>
